<svg xmlns="http://www.w3.org/2000/svg" version="1.1" xmlns:xlink="http://www.w3.org/1999/xlink" xmlns:svgjs="http://svgjs.dev/svgjs" width="308.7612359841165" height="304.915625" viewBox="0 0 308.7612359841165 304.915625">
  <g transform="matrix(1,0,0,1,0.0002562226959526015,0)">
    <svg viewBox="0 0 308.7612359841165 308.7612359841165" data-background-color="#ffffff" preserveAspectRatio="xMidYMid meet" height="304.915625" width="308.7612359841165" xmlns="http://www.w3.org/2000/svg" xmlns:xlink="http://www.w3.org/1999/xlink">
      <g id="tight-bounds" transform="matrix(1,0,0,1,0.00005466084189720277,0)">
        <svg viewBox="0 0 320 304.915625" height="360" width="308.7612359841165">
          <g>
            <svg></svg>
          </g>
          <g>
            <svg viewBox="0 0 320 360" height="304.915625" width="308.7612359841165">
              <g>
                <path transform="translate(-119.39272,-98.31927) scale(5.58313,5.58313)" d="M36.7 23.5c0-0.2 0.1-0.4 0.3-0.4 0.2 0 0.4 0.1 0.4 0.4 0.1 0 0.3 0 0.4-0.1 0.4 0 0.8-0.1 1.1 0 0.3 0.1 0.5 0.1 0.8 0.2 0.3 0.1 0.5 0 0.7-0.1 0.4-0.1 0.7-0.3 1.1-0.4 0.2-0.1 0.3-0.1 0.5-0.1 0.2-0.1 0.4-0.1 0.7-0.2 0.5-0.1 1-0.2 1.4-0.4 0.4-0.2 0.8-0.2 1.2-0.3 0.2 0 0.3-0.1 0.5-0.2 0.1 0 0.1-0.1 0.2-0.2 0.2-0.1 0.3-0.2 0.5-0.1 0.1 0.1 0.3 0.1 0.4 0h0.1c0.6 0 1.2-0.1 1.9 0 0.1 0 0.2 0 0.2 0 0.3-0.2 0.7-0.2 1.1-0.2 0.1 0 0.3 0 0.4 0h0.1c0.4 0 0.8 0 1.1 0.1 0.3 0 0.5 0.1 0.8 0.2 0.3 0 0.5 0 0.8 0.1 0.2 0 0.4 0 0.6 0 0.1 0 0.2 0 0.2 0 0.4 0.1 0.8 0.1 1.2 0.1 0.3 0.1 0.6 0.2 1 0.2 0.1 0 0.2 0 0.3 0 0.1 0 0.2 0.1 0.3 0.1l0.1 0.1c0.4 0 0.7 0.2 1.1 0.2 0.1 0 0.3 0 0.4 0.1 0.3 0.2 0.7 0.3 1.1 0.3 0.2 0 0.3 0.1 0.4 0.2 0.3 0.1 0.5 0.2 0.8 0.3 0.2 0.1 0.4 0 0.6 0.1 0.3 0.1 0.7 0.2 1 0.5 0.2 0.2 0.4 0.2 0.7 0.4 0.1 0 0.2 0.1 0.3 0.2 0.3 0.2 0.6 0.4 0.9 0.5 0.1 0 0.2 0.1 0.3 0.1 0.3 0.2 0.6 0.5 1 0.7 0.2 0.1 0.3 0.2 0.5 0.3h0.1c0.3 0.3 0.7 0.5 1 0.8 0.3 0.3 0.5 0.5 0.9 0.7 0 0 0 0 0 0.1 0.1 0.2 0.2 0.3 0.4 0.4 0.2 0.1 0.3 0.2 0.4 0.3 0.3 0.2 0.6 0.4 0.8 0.6 0.1 0.1 0.2 0.2 0.4 0.4 0.1 0.1 0.2 0.2 0.3 0.2 0.4 0.1 0.6 0.4 0.9 0.7 0.2 0.2 0.5 0.5 0.7 0.7 0.1 0.1 0.2 0.3 0.3 0.5 0.2 0.6 0.5 1.2 0.8 1.7 0 0 0 0.1 0.1 0.2v0.1c0.2 0.2 0.3 0.5 0.5 0.7 0.1 0.1 0.1 0.2 0.2 0.3 0.2 0.3 0.3 0.7 0.5 1 0.3 0.5 0.5 1 0.7 1.5v0.1c0.1 0.2 0.2 0.4 0.3 0.7 0 0.2 0.2 0.4 0.3 0.7 0.1 0.5 0.4 1 0.5 1.6 0 0.1 0.1 0.2 0.1 0.4 0.1 0.3 0.2 0.6 0.3 0.9 0 0.1 0.1 0.2 0.2 0.3 0.2 0.2 0.2 0.4 0.2 0.6-0.1 0.4 0 0.8 0.1 1.2 0 0.1 0 0.2 0 0.4 0.1 0.4 0.2 0.9 0.2 1.3 0 0.1 0 0.3 0 0.4 0 0.3 0.1 0.6 0.3 0.9 0 0.1 0.1 0.1 0.1 0.1 0.1 0.1 0.2 0.3 0.3 0.4 0.1 0.1 0.1 0.1 0.2 0.2 0.2 0.2 0.3 0.4 0.3 0.7 0 0.1-0.1 0.3-0.1 0.4 0 0.1 0 0.3 0.1 0.4 0.1 0.1 0.1 0.2 0.1 0.3 0 0.1-0.1 0.2-0.2 0.2v0c-0.1 0.3-0.5 0.4-0.6 0.7-0.1 0.4-0.2 0.8-0.3 1.2-0.1 0.3-0.1 0.5-0.1 0.8 0 0.3-0.1 0.5-0.1 0.8-0.1 0.4-0.2 0.8-0.3 1.2 0 0.2-0.1 0.4-0.1 0.6 0.1 0.1 0.2 0.2 0.3 0.2 0.2 0.2 0.4 0.4 0.6 0.6 0.1 0.1 0.1 0.2 0 0.2-0.1 0.1-0.2 0.1-0.3 0.1-0.1-0.1-0.3-0.2-0.4-0.2-0.1-0.1-0.3-0.2-0.5-0.1 0 0.2-0.1 0.4-0.1 0.5-0.1 0.2-0.2 0.5-0.2 0.7-0.1 0.4-0.3 0.7-0.4 1.1-0.2 0.5-0.4 0.9-0.6 1.3-0.1 0.2-0.2 0.4-0.3 0.6v0c0 0.3-0.3 0.6-0.4 0.9-0.2 0.4-0.4 0.8-0.6 1.3-0.1 0.2-0.2 0.4-0.3 0.5-0.2 0.5-0.4 0.9-0.7 1.3-0.2 0.3-0.4 0.5-0.6 0.6-0.2 0.2-0.4 0.4-0.6 0.6-0.1 0.1-0.2 0.2-0.3 0.3-0.1 0.1-0.1 0.1-0.2 0.2-0.2 0.3-0.5 0.5-0.7 0.8-0.2 0.2-0.3 0.4-0.6 0.6-0.2 0.2-0.4 0.5-0.7 0.6-0.1 0.1-0.2 0.3-0.3 0.4-0.1 0.1-0.2 0.3-0.3 0.4 0 0.2 0.1 0.4 0.1 0.5 0 0.3-0.3 0.4-0.5 0.2-0.3-0.2-0.3-0.2-0.6 0-0.3 0.2-0.6 0.5-1 0.6-0.1 0-0.1 0.1-0.2 0.1-0.2 0.1-0.3 0.3-0.5 0.4-0.2 0.2-0.5 0.3-0.7 0.5-0.1 0.1-0.2 0.1-0.3 0.2-0.3 0.2-0.6 0.3-0.9 0.6-0.1 0.1-0.2 0.1-0.3 0.2 0 0.1 0 0.1 0 0.2 0 0.2-0.2 0.4-0.5 0.3-0.3-0.1-0.5 0-0.8 0-0.3 0.1-0.6 0.3-0.9 0.4-0.1 0-0.2 0.1-0.3 0.2-0.3 0.2-0.6 0.3-0.9 0.4-0.2 0-0.4 0.2-0.6 0.2-0.1 0-0.2 0.1-0.3 0.1h-0.1c-0.4 0.3-0.8 0.5-1.2 0.8-0.1 0-0.1 0.1-0.2 0.2-0.1 0.2-0.2 0.3-0.4 0.3-0.5 0-0.7 0.4-0.6 0.8 0 0.1 0.1 0.2 0.1 0.3 0.1 0.2 0 0.4-0.1 0.5-0.1 0.1-0.4 0.1-0.5-0.1-0.2-0.2-0.3-0.4-0.4-0.7-0.1-0.2-0.3-0.4-0.5-0.5-0.2-0.1-0.4-0.1-0.6 0-0.1 0-0.1 0.1-0.2 0.1-0.2 0.2-0.5 0.3-0.8 0.2-0.1 0-0.3 0-0.3 0.1-0.1 0.1-0.1 0.3 0 0.4 0.2 0.2 0.1 0.4 0.1 0.7 0 0.4-0.3 0.6-0.7 0.4-0.1-0.1-0.2-0.1-0.3-0.2-0.1 0-0.1-0.1-0.1-0.2-0.1-0.1-0.1-0.3-0.2-0.5-0.2 0.1-0.4 0.1-0.6 0.2-0.1 0-0.2 0.1-0.3 0.1-0.3 0-0.4 0-0.5-0.3-0.1-0.3-0.3-0.3-0.5-0.4-0.4-0.1-0.9-0.1-1.3-0.3h-0.1c-0.4-0.3-0.8-0.3-1.3-0.3-0.3 0-0.6 0.1-0.9 0.1-0.3 0-0.5 0.1-0.7 0.3-0.1 0.1-0.2 0.2-0.3 0.2-0.1-0.1-0.1-0.2-0.2-0.3v-0.1c0-0.1-0.1-0.2-0.2-0.1-0.2 0.1-0.4-0.1-0.6-0.2-0.1-0.1-0.3-0.3-0.3-0.5-0.1-0.1-0.2-0.2-0.3-0.2-0.2 0-0.5-0.1-0.7-0.1-0.1 0-0.2 0-0.2-0.1-0.1-0.1-0.2-0.1-0.4-0.1-0.1 0-0.1-0.1-0.2-0.1 0.2 0.2 0.3 0.4 0.4 0.6 0 0.1 0.1 0.1 0.1 0.2 0.1 0.2 0 0.3-0.3 0.3-0.2 0-0.2 0-0.3 0.1 0 0.2 0 0.3 0 0.5 0 0.1 0 0.2-0.2 0.3 0 0-0.1 0-0.1 0.1-0.1 0.1-0.1 0.2 0 0.3 0.3 0.2 0.5 0.3 0.8 0.4 0.3 0 0.3 0.2 0.4 0.4 0.1 0.2 0 0.3-0.1 0.5-0.2 0.2-0.4 0.4-0.6 0.6-0.3 0.1-0.5 0.4-0.8 0.4-0.2 0-0.4-0.1-0.5-0.3-0.1-0.5-0.1-0.9 0.1-1.4 0-0.1 0.1-0.2 0-0.3-0.9 0-0.9-0.2-0.9-0.3 0-0.2 0.1-0.3 0.1-0.5 0.1-0.2 0-0.3-0.3-0.4-0.1 0-0.2 0-0.3 0-0.1 0-0.1-0.1-0.3-0.1 0.2-0.1 0.3-0.1 0.5-0.2-0.1-0.4-0.2-0.7-0.5-0.9-0.1-0.1-0.2-0.2-0.2-0.4 0-0.3-0.2-0.5-0.3-0.7-0.2-0.3-0.6-0.4-0.9-0.4-0.3-0.1-0.5-0.1-0.8-0.2-0.3-0.1-0.6-0.4-0.9-0.5-0.1-0.1-0.2-0.2-0.4-0.3-0.4-0.2-0.7-0.5-1-0.8-0.2-0.1-0.3-0.3-0.5-0.4-0.2-0.2-0.3-0.4-0.5-0.5-0.2-0.2-0.4-0.4-0.7-0.6-0.3-0.2-0.5-0.5-0.8-0.8-0.2-0.3-0.5-0.5-0.8-0.7-0.1 0-0.2 0-0.3 0-0.1 0-0.2 0.1-0.3 0.1-0.3 0.1-0.5 0.3-0.8 0.4 0.1-0.1 0.1-0.1 0-0.3-0.1-0.1-0.2-0.2-0.3-0.2-0.2 0-0.4 0-0.6 0-0.4 0-0.8 0.1-1.2 0.1-0.3 0-0.7 0.1-1 0.2 0.1 0.2 0.1 0.3 0.2 0.5-0.2 0.1-0.4 0.1-0.6 0.1-0.1 0-0.3 0.1-0.4 0.2-0.1 0-0.1 0.1-0.2 0-0.2-0.1-0.4 0-0.6 0.1h-0.1c0 0 0-0.1 0.1-0.1 0.1-0.1 0.2-0.2 0.3-0.3 0.1-0.1 0.2-0.1 0.4-0.2-0.1-0.1-0.1-0.2-0.1-0.2-0.1-0.1-0.2-0.1-0.3 0-0.1 0.1-0.2 0.2-0.3 0.3-0.1 0.1-0.2 0.1-0.3 0-0.1-0.1-0.1-0.2 0-0.3 0-0.1 0.1-0.2 0.2-0.3 0.1-0.1 0.1-0.2 0.2-0.3-0.2-0.2-0.3-0.4-0.5-0.5-0.3-0.2-0.6-0.5-0.8-0.8-0.2-0.4-0.5-0.7-0.9-0.9-0.1-0.1-0.2-0.2-0.3-0.3-0.1-0.1-0.1-0.1-0.2-0.2-0.3 0.1-0.5 0.3-0.8 0.4-0.1 0-0.1 0.1-0.2 0.2-0.1 0.2-0.3 0.2-0.5 0.2-0.1 0-0.2-0.1-0.1-0.2 0.1-0.2 0.2-0.4 0.5-0.3 0 0 0.1 0 0.1-0.1 0.2-0.2 0.4-0.5 0.7-0.7-0.1-0.3-0.3-0.5-0.4-0.7-0.1-0.1-0.1-0.2-0.1-0.4 0-0.1 0-0.1-0.1-0.2 0 0-0.1 0-0.2 0.1-0.1 0.1-0.3 0.2-0.5 0 0-0.1 0-0.2 0.1-0.3l0.1-0.1c0.3-0.1 0.3-0.4 0.3-0.7v-0.1c-0.1-0.2-0.1-0.3 0.1-0.5 0.3-0.2 0.6-0.6 0.7-0.9 0.1-0.2 0.3-0.3 0.5-0.5 0.2-0.2 0.4-0.4 0.5-0.7h0.1c0.4 0.1 0.5-0.2 0.7-0.5 0-0.1 0-0.2 0.1-0.2 0.2-0.2 0.2-0.4 0.1-0.7 0-0.1-0.1-0.3-0.1-0.4 0-0.1 0-0.1-0.1-0.2-0.3-0.2-0.3-0.4 0-0.6 0.2-0.1 0.2-0.3 0.3-0.4 0.1-0.2 0.1-0.4 0.1-0.7-0.1-0.3-0.1-0.7-0.2-1-0.1-0.4-0.2-0.9-0.3-1.3 0-0.1 0-0.1 0-0.2 0-0.3 0-0.5-0.1-0.8-0.1-0.1-0.1-0.3-0.1-0.4-0.1-0.3-0.2-0.5-0.5-0.6-0.3-0.2-0.7-0.3-1-0.5-0.1-0.1-0.2 0-0.3 0.1-0.1 0.2-0.3 0.4-0.4 0.6-0.1 0.1-0.2 0.3-0.3 0.5-0.2 0.2-0.6 0.4-0.9 0.1-0.1-0.2-0.2-0.3 0-0.5 0.2-0.3 0.4-0.6 0.7-0.8 0.1-0.1 0.2-0.3 0.3-0.4 0.1-0.2 0.1-0.4 0.1-0.6-0.1-0.4-0.2-0.8-0.2-1.3 0-0.5 0-0.9 0.1-1.4 0.1-0.2 0.1-0.5 0.2-0.7 0-0.1 0.1-0.3 0.2-0.4 0.2-0.2 0.4-0.4 0.5-0.7 0.1-0.3 0.3-0.6 0.3-0.9 0-0.1 0.1-0.2 0.1-0.3 0-0.1 0.1-0.3 0.1-0.4-0.1-0.3 0-0.5 0.1-0.7 0.1-0.2 0.2-0.5 0.3-0.7 0.2-0.4 0.2-0.9 0.6-1.3 0.1-0.2 0.2-0.4 0.3-0.6 0.1-0.4 0.3-0.7 0.5-1 0.1-0.1 0.1-0.1 0.1-0.2 0.1-0.3 0.3-0.6 0.5-0.9 0.2-0.3 0.2-0.6 0.3-0.9 0-0.1 0-0.2 0.1-0.3 0.3-0.3 0.2-0.7 0.1-1.1-0.2-0.5-0.3-1-0.2-1.5 0-0.1 0-0.2 0.1-0.2 0.1-0.2 0.1-0.3 0.2-0.5v-0.1c0.2-0.2 0.4-0.5 0.7-0.6 0.4-0.2 0.8-0.3 1.3-0.4 0.4 0 0.8-0.2 1.1-0.6 0-0.1 0.1-0.1 0.2-0.2l0.1-0.1c0.1-0.2 0.2-0.3 0.3-0.4 0.2-0.2 0.4-0.5 0.6-0.7 0.2-0.2 0.4-0.5 0.7-0.8l0.1-0.1c0.2-0.2 0.4-0.4 0.6-0.5 0.2-0.2 0.4-0.4 0.6-0.6 0.2-0.2 0.3-0.4 0.5-0.6 0.2-0.1 0.4-0.3 0.6-0.5 0.2-0.2 0.4-0.4 0.5-0.5 0.2-0.2 0.5-0.4 0.7-0.5 0.2-0.1 0.4-0.2 0.5-0.5 0.1-0.3 0.2-0.5 0.3-0.8 0-0.2 0.1-0.4 0.2-0.6 0.1 0 0.2 0 0.4-0.1-0.1-0.1-0.2-0.1-0.2-0.2 0-0.1 0.1-0.2 0.1-0.2 0-0.1 0.1-0.2 0.1-0.3 0 0 0.1 0 0.1-0.1 0 0 0.1 0 0.1-0.1-0.2 0.1-0.3 0-0.4-0.1 0.1 0.1 0.2 0.1 0.4 0.2 0 0 0.1 0 0.1-0.1 0-0.1 0-0.2 0-0.2 0 0-0.1 0-0.2 0-0.1 0-0.2 0.1-0.3 0.1zM54 70.5c0-0.1-0.1-0.1-0.1-0.2-0.1-0.2 0-0.3 0.1-0.4 0.1-0.1 0.2-0.1 0.4-0.1 0.2 0.1 0.3 0.2 0.3 0.4 0 0.1 0 0.3 0 0.4 0.1 0.4 0.1 0.4 0.5 0.4 0.2 0 0.4 0 0.6 0 0.4-0.1 0.8-0.3 1.2-0.4 0.4-0.1 0.8-0.2 1.2-0.3 0.1 0 0.2 0 0.4 0 0.4 0.1 0.7 0 1-0.2 0.1-0.1 0.3-0.1 0.4-0.2 0.2-0.1 0.4-0.1 0.6-0.2 0.5-0.3 1-0.5 1.4-0.8 0.3-0.2 0.6-0.4 0.9-0.6 0.3-0.2 0.6-0.4 0.9-0.6 0.2-0.1 0.5-0.3 0.7-0.5 0.4-0.3 0.7-0.6 1.1-0.8 0.2-0.1 0.3-0.2 0.4-0.3 0.2-0.1 0.3-0.3 0.5-0.4 0.1-0.1 0.2-0.2 0.4-0.3 0.1-0.1 0.1-0.1 0.1-0.2 0.3-0.2 0.6-0.6 0.8-0.9 0.2-0.2 0.4-0.4 0.6-0.7 0.3-0.3 0.5-0.7 0.8-1.1 0.2-0.2 0.4-0.5 0.5-0.7 0.2-0.4 0.4-0.8 0.7-1.1v-0.1c0.2-0.4 0.4-0.8 0.6-1.2 0.3-0.5 0.5-1.1 0.8-1.6 0.1-0.2 0.2-0.4 0.2-0.6 0.2-0.4 0.3-0.8 0.4-1.2 0-0.1 0-0.1 0.1-0.2 0.3-0.6 0.5-1.2 0.6-1.9 0.1-0.4 0.2-0.8 0.3-1.2 0.2-0.6 0.2-1.1 0.3-1.7 0.1-0.4 0.1-0.9 0.1-1.3 0.1-0.6 0.1-1.3 0-1.9 0-0.5-0.1-1.1-0.1-1.6 0-0.5-0.1-0.9-0.2-1.4-0.1-0.5-0.2-0.9-0.3-1.4-0.2-0.4-0.3-0.8-0.4-1.3-0.1-0.4-0.3-0.7-0.3-1.1 0-0.3-0.1-0.6-0.4-0.7-0.3-0.1-0.5-0.2-0.8-0.4-0.6-0.4-0.9-0.9-0.8-1.5 0-0.3 0.1-0.7 0.2-1 0.1-0.3 0.2-0.6 0-0.8-0.1-0.3-0.3-0.5-0.4-0.7-0.2-0.3-0.3-0.5-0.5-0.7-0.2-0.4-0.4-0.8-0.7-1.1-0.4-0.5-0.7-1-1.2-1.4l-0.1-0.1c-0.3-0.4-0.6-0.8-1-1.1-0.2-0.2-0.4-0.4-0.6-0.5-0.1-0.1-0.2-0.2-0.4-0.3-0.3-0.2-0.6-0.3-0.8-0.5-0.3-0.3-0.7-0.5-1-0.7 0 0-0.1 0-0.1-0.1-0.4-0.2-0.7-0.3-1.1-0.5-0.4-0.2-0.8-0.3-1.2-0.3-0.1 0-0.1 0-0.2 0-0.1-0.1-0.3-0.1-0.4-0.1-0.1 0-0.1 0-0.2 0-0.2-0.1-0.5 0-0.7 0-0.4 0.1-0.8 0.1-1.2-0.1-0.5-0.2-0.9-0.4-1.3-0.6-0.3-0.2-0.5-0.4-0.8-0.6-0.6-0.5-1.2-1.1-1.9-1.6 0.1-0.5-0.1-0.6-0.5-0.6-0.2 0-0.4 0.1-0.6 0.2-0.1 0.1-0.1 0.1-0.2 0.2-0.3 0.2-0.5 0.5-0.8 0.7-0.5 0.3-0.7 0.2-1.1 0-0.1-0.1-0.2-0.2-0.3-0.3-0.2-0.2-0.4-0.5-0.5-0.7-0.2-0.4-0.6-0.4-1-0.4-0.2 0-0.5 0.1-0.7 0.1-0.4 0-0.8 0.2-1 0.5-0.2 0.3-0.4 0.6-0.7 0.9-0.1 0.1-0.3 0.2-0.4 0.4-0.2 0.2-0.4 0.2-0.6 0-0.1-0.1-0.2-0.1-0.3-0.2-0.1 0.1-0.2 0.2-0.2 0.3-0.1 0.2-0.2 0.4-0.3 0.7-0.1 0.3-0.3 0.6-0.5 0.8-0.1 0.1-0.1 0.1-0.2 0.2-0.1 0.2-0.4 0.3-0.6 0.3-0.2 0.2-0.4 0.5-0.5 0.7-0.1 0.2-0.2 0.4-0.3 0.7-0.1 0.1-0.1 0.3-0.2 0.4-0.1 0.2-0.1 0.3-0.1 0.5 0.1 0.3-0.1 0.4-0.4 0.5-0.2 0-0.2 0-0.3 0.2 0 0.3 0.1 0.5 0.2 0.8 0.1 0.1 0.2 0.3 0.2 0.4 0 0.2 0.1 0.3 0.3 0.4 0.1 0.1 0.2 0.2 0.3 0.2 0.1 0 0.1 0.1 0.2 0.1 0.1 0.1 0.2 0 0.2-0.1 0.1-0.3 0.2-0.6 0.2-0.9 0.1-0.4 0.1-0.7 0.2-1.1 0.1-0.2 0.2-0.3 0.3-0.4 0 0 0.1 0 0.2 0v0.1c-0.1 0.5-0.3 1.1-0.4 1.6-0.1 0.2-0.1 0.4-0.2 0.6 0 0.1-0.1 0.2-0.2 0.2-0.2 0.1-0.4 0.2-0.6 0.2-0.1 0-0.2 0-0.3 0-0.2-0.1-0.4-0.3-0.6-0.4-0.1-0.1-0.2-0.2-0.3-0.3-0.1-0.2-0.2-0.4-0.3-0.6-0.1-0.2-0.2-0.3-0.4-0.4-0.1-0.1-0.2-0.1-0.3-0.2-0.2-0.2-0.4-0.3-0.7-0.3-0.1 0-0.3 0-0.4 0-0.1 0-0.3 0.1-0.4 0.2-0.2 0.1-0.3 0.1-0.5 0-0.5-0.2-1-0.1-1.5 0.1-0.2 0.1-0.4 0.2-0.6 0.2-0.5 0-0.9 0-1.4 0-0.5 0-0.9-0.1-1.4-0.2-0.2 0-0.4 0-0.6 0-0.4 0.1-0.5 0.4-0.4 0.8 0.1 0.4 0.2 0.9 0.2 1.3 0 0.3 0 0.6 0 0.9 0 0.2 0 0.3 0 0.5 0 0.3-0.1 0.6-0.1 0.9-0.1 0.6-0.4 1.1-0.8 1.5-0.3 0.3-0.7 0.6-1.1 0.7-0.2 0.1-0.4 0.2-0.7 0.3-0.5 0.2-0.9 0.6-1.2 1.1-0.1 0.2-0.2 0.4-0.3 0.6-0.2 0.3-0.3 0.5-0.5 0.8-0.1 0.2-0.3 0.4-0.4 0.6-0.1 0.2-0.3 0.3-0.3 0.5-0.2 0.4-0.3 0.8-0.5 1.2-0.1 0.2-0.1 0.5-0.2 0.7-0.2 0.4-0.2 0.8-0.2 1.3 0 0.1 0 0.2 0 0.4 0 0.5-0.1 1.1-0.1 1.6 0 0.5 0 1 0.1 1.5 0 0.2 0 0.5 0 0.7 0 0.4 0.1 0.9 0.1 1.3 0 0.4 0 0.9 0.2 1.3v0.1c0.1 0.4 0.1 0.8 0.2 1.2 0 0.1 0 0.2 0.1 0.3 0.2 0.6 0.3 1.1 0.5 1.7 0.1 0.4 0.3 0.8 0.4 1.2 0.1 0.4 0.5 0.8 0.6 1.3v0c0.3 0.6 0.6 1.2 1 1.8 0.1 0.2 0.3 0.4 0.4 0.6 0.2 0.3 0.3 0.6 0.5 0.8 0.1 0.2 0.3 0.4 0.4 0.5 0.1 0.2 0.2 0.4 0.4 0.6 0.2 0.2 0.4 0.5 0.6 0.7 0.3 0.5 0.7 0.9 1.1 1.2 0.2 0.2 0.4 0.3 0.6 0.5 0.1 0.1 0.2 0.1 0.2 0.2 0.1 0.1 0.2 0.2 0.4 0.3 0.8 0.4 1.4 1 2.1 1.6 0.3 0.3 0.6 0.6 1 0.8 0.4 0.3 0.7 0.6 1.2 0.7 0 0 0.1 0 0.1 0.1 0.2 0.2 0.5 0.3 0.7 0.4 0.4 0.2 0.9 0.4 1.3 0.6 0.1 0.1 0.3 0.1 0.4 0.2 0.3 0.1 0.6 0.2 0.9 0.3 0.3 0.1 0.5 0.2 0.8 0.2h0.1c0.2 0.1 0.3 0.1 0.5 0 0.1 0 0.2 0 0.2 0.1 0 0.1 0.1 0.1 0.2 0.1 0.1 0 0.2 0 0.4 0 0.1-0.1 0.1-0.2 0.2-0.4 0.1 0.1 0.2 0.1 0.2 0.1 0.1 0.2 0.3 0.2 0.5 0.2h0.1c0.2 0 0.3 0 0.4-0.1 0-0.1 0.2-0.1 0.3-0.1 0.3 0.1 0.6 0.1 0.9 0.2 0.2 0.1 0.5 0.1 0.6-0.1 0.1-0.1 0.2-0.2 0.4-0.1 0.2 0.1 0.3 0.1 0.5 0 0.1 0 0.2 0 0.2 0 0.3 0.1 0.5 0.1 0.8 0.2 0.4 0.1 0.4 0.1 0.7-0.2 0.1-0.1 0.3-0.1 0.4 0 0.1 0.2 0.1 0.3 0.1 0.5 0.1 0 0.1 0 0.2-0.1 0-0.2 0.1-0.2 0.3-0.3 0.1 0.1 0.1 0.1 0.2 0.1 0.2 0.2 0.3 0.2 0.4-0.1 0-0.1 0-0.2 0.1-0.2 0.1 0 0.2 0.1 0.2 0.1 0.1 0.2 0.3 0.3 0.4 0.5 0.2 0.2 0.5 0.2 0.6 0 0.1-0.1 0.2-0.1 0.3-0.1 0-0.1 0-0.2 0-0.3 0.3 0.2 0.2 0.2 0.1 0.2zM37.4 23.8c0.3 0.1 0.5 0.1 0.6-0.1-0.2 0.1-0.4-0.1-0.6 0.1z" fill="#ff4136" fill-rule="nonzero" stroke="none" stroke-width="1" stroke-linecap="butt" stroke-linejoin="miter" stroke-miterlimit="10" stroke-dasharray="" stroke-dashoffset="0" font-family="none" font-weight="none" font-size="none" text-anchor="none" style="mix-blend-mode: normal" data-fill-palette-color="tertiary"></path>
              </g>
              <g transform="matrix(1,0,0,1,114.16433720737888,90)">
                <svg viewBox="0 0 91.67132558524223 180" height="180" width="91.67132558524223">
                  <g>
                    <svg viewBox="0 0 91.67132558524223 180" height="180" width="91.67132558524223">
                      <g>
                        <svg viewBox="0 0 153.2967032967033 301.00368263736266" height="180" width="91.67132558524223">
                          <g transform="matrix(1,0,0,1,0,121.00368263736263)">
                            <svg viewBox="0 0 153.2967032967033 180" height="180" width="153.2967032967033">
                              <g id="textblocktransform">
                                <svg viewBox="0 0 153.2967032967033 180" height="180" width="153.2967032967033" id="textblock">
                                  <g>
                                    <svg viewBox="0 0 153.2967032967033 180" height="180" width="153.2967032967033">
                                      <g transform="matrix(1,0,0,1,0,0)">
                                        <svg width="153.2967032967033" viewBox="2 -35.9 31 36.400000000000006" height="180" data-palette-color="#ff4136">
                                          <path d="M19.95 0.5L19.95 0.5Q16.55 0.5 13.35-0.28 10.15-1.05 7.58-3.05 5-5.05 3.5-8.6 2-12.15 2-17.7L2-17.7Q2-22.85 3.5-26.35 5-29.85 7.5-31.95 10-34.05 12.98-34.98 15.95-35.9 18.95-35.9L18.95-35.9Q21.5-35.9 23.93-35.5 26.35-35.1 27.45-34.6L27.45-34.6 33-30.05 28.5-22.8 19.95-27.2Q16.4-27.2 13.95-24.88 11.5-22.55 11.5-17.7L11.5-17.7Q11.5-14.25 12.73-12.1 13.95-9.95 16.1-8.95 18.25-7.95 21-7.95L21-7.95Q23.9-7.95 25.95-8.43 28-8.9 29.55-9.58 31.1-10.25 32.5-10.9L32.5-10.9 32.5-2.5Q30.75-1.4 27.85-0.45 24.95 0.5 19.95 0.5Z" opacity="1" transform="matrix(1,0,0,1,0,0)" fill="#ff4136" class="wordmark-text-0" data-fill-palette-color="primary" id="text-0"></path>
                                        </svg>
                                      </g>
                                    </svg>
                                  </g>
                                </svg>
                              </g>
                            </svg>
                          </g>
                          <g transform="matrix(1,0,0,1,29.27967032967033,0)">
                            <svg viewBox="0 0 94.73736263736264 94.73736263736264" height="94.73736263736264" width="94.73736263736264">
                              <g>
                                <svg xmlns="http://www.w3.org/2000/svg" xmlns:xlink="http://www.w3.org/1999/xlink" version="1.1" x="0" y="0" viewBox="19 19 474 474" style="enable-background:new 0 0 512 512;" xml:space="preserve" height="94.73736263736264" width="94.73736263736264" class="icon-icon-0" data-fill-palette-color="accent" id="icon-0">
                                  <g fill="#ff4136" data-fill-palette-color="accent">
                                    <g fill="#ff4136" data-fill-palette-color="accent">
                                      <g fill="#ff4136" data-fill-palette-color="accent">
                                        <path d="M486 493H26c-3.866 0-7-3.134-7-7V26c0-3.866 3.134-7 7-7h460c3.866 0 7 3.134 7 7v460C493 489.866 489.866 493 486 493zM33 479h446V33H33V479z" fill="#ff4136" data-fill-palette-color="accent"></path>
                                      </g>
                                      <g fill="#ff4136" data-fill-palette-color="accent">
                                        <path d="M486 113H26c-3.866 0-7-3.134-7-7s3.134-7 7-7h460c3.866 0 7 3.134 7 7S489.866 113 486 113z" fill="#ff4136" data-fill-palette-color="accent"></path>
                                      </g>
                                      <g fill="#ff4136" data-fill-palette-color="accent">
                                        <path d="M446 73H266c-3.866 0-7-3.134-7-7s3.134-7 7-7h180c3.866 0 7 3.134 7 7S449.866 73 446 73z" fill="#ff4136" data-fill-palette-color="accent"></path>
                                      </g>
                                      <g fill="#ff4136" data-fill-palette-color="accent">
                                        <path d="M86 73H66c-3.866 0-7-3.134-7-7s3.134-7 7-7h20c3.866 0 7 3.134 7 7S89.866 73 86 73z" fill="#ff4136" data-fill-palette-color="accent"></path>
                                      </g>
                                      <g fill="#ff4136" data-fill-palette-color="accent">
                                        <path d="M176 73h-20c-3.866 0-7-3.134-7-7s3.134-7 7-7h20c3.866 0 7 3.134 7 7S179.866 73 176 73z" fill="#ff4136" data-fill-palette-color="accent"></path>
                                      </g>
                                      <g fill="#ff4136" data-fill-palette-color="accent">
                                        <path d="M266 383H86c-3.866 0-7-3.134-7-7V196c0-3.866 3.134-7 7-7h180c3.866 0 7 3.134 7 7v180C273 379.866 269.866 383 266 383zM93 369h166V203H93V369z" fill="#ff4136" data-fill-palette-color="accent"></path>
                                      </g>
                                      <g fill="#ff4136" data-fill-palette-color="accent">
                                        <path d="M266 263H86c-3.866 0-7-3.134-7-7v-60c0-3.866 3.134-7 7-7h180c3.866 0 7 3.134 7 7v60C273 259.866 269.866 263 266 263zM93 249h166v-46H93V249z" fill="#ff4136" data-fill-palette-color="accent"></path>
                                      </g>
                                      <g fill="#ff4136" data-fill-palette-color="accent">
                                        <path d="M146 343c-1.792 0-3.583-0.684-4.95-2.05l-20-20c-2.734-2.734-2.734-7.166 0-9.9l20-20c2.733-2.732 7.166-2.732 9.899 0 2.734 2.734 2.734 7.166 0 9.9L135.899 316l15.05 15.05c2.734 2.734 2.734 7.166 0 9.9C149.583 342.316 147.792 343 146 343z" fill="#ff4136" data-fill-palette-color="accent"></path>
                                      </g>
                                      <g fill="#ff4136" data-fill-palette-color="accent">
                                        <path d="M206 343c-1.792 0-3.583-0.684-4.95-2.05-2.734-2.734-2.734-7.166 0-9.9l15.05-15.05-15.05-15.05c-2.734-2.734-2.734-7.166 0-9.9 2.733-2.732 7.166-2.732 9.899 0l20 20c2.734 2.734 2.734 7.166 0 9.9l-20 20C209.583 342.316 207.792 343 206 343z" fill="#ff4136" data-fill-palette-color="accent"></path>
                                      </g>
                                      <rect x="116" y="216" width="20" height="20" fill="#ff4136" data-fill-palette-color="accent"></rect>
                                      <rect x="156" y="216" width="20" height="20" fill="#ff4136" data-fill-palette-color="accent"></rect>
                                      <g fill="#ff4136" data-fill-palette-color="accent">
                                        <path d="M376 203h-60c-3.866 0-7-3.134-7-7s3.134-7 7-7h60c3.866 0 7 3.134 7 7S379.866 203 376 203z" fill="#ff4136" data-fill-palette-color="accent"></path>
                                      </g>
                                      <g fill="#ff4136" data-fill-palette-color="accent">
                                        <path d="M426 243H316c-3.866 0-7-3.134-7-7s3.134-7 7-7h110c3.866 0 7 3.134 7 7S429.866 243 426 243z" fill="#ff4136" data-fill-palette-color="accent"></path>
                                      </g>
                                      <g fill="#ff4136" data-fill-palette-color="accent">
                                        <path d="M346 413c-25.916 0-47-21.084-47-47v-40c0-25.916 21.084-47 47-47s47 21.084 47 47c0 3.866-3.134 7-7 7s-7-3.134-7-7c0-18.196-14.804-33-33-33s-33 14.804-33 33v40c0 18.196 14.804 33 33 33s33-14.804 33-33c0-3.866 3.134-7 7-7s7 3.134 7 7C393 391.916 371.916 413 346 413z" fill="#ff4136" data-fill-palette-color="accent"></path>
                                      </g>
                                    </g>
                                  </g>
                                </svg>
                              </g>
                            </svg>
                          </g>
                          <g></g>
                        </svg>
                      </g>
                    </svg>
                  </g>
                </svg>
              </g>
            </svg>
          </g>
          <defs></defs>
        </svg>
        <rect width="320" height="360" fill="none" stroke="none" visibility="hidden"></rect>
      </g>
    </svg>
  </g>
</svg>